<?xml version="1.0" encoding="UTF-8"?>
<svg version="1.1" xmlns="http://www.w3.org/2000/svg" width="512" height="512">
<path d="M0 0 C7.06827017 0.58902251 13.81840218 1.1548054 20.74636841 2.38360596 C21.5442869 2.52071157 22.3422054 2.65781718 23.16430324 2.79907751 C25.80068326 3.2533674 28.43571284 3.7150373 31.07080078 4.17675781 C32.98508759 4.50818832 34.89945485 4.83915445 36.81389523 5.16969681 C42.01727741 6.06943365 47.21952136 6.97560167 52.4215939 7.88287544 C57.96557024 8.84858155 63.5106048 9.80817369 69.05552673 10.76843262 C78.51212772 12.40691605 87.96809353 14.04902141 97.4236145 15.69372559 C112.10762092 18.24783304 126.79283081 20.79497423 141.47827148 23.34082031 C146.35985441 24.18715799 151.24142949 25.03354092 156.1230011 25.87994385 C157.32678884 26.08866017 158.53057658 26.29737649 159.77084273 26.51241755 C168.25677076 27.98382922 176.7425214 29.45626109 185.22819519 30.92913818 C212.53322869 35.66826067 239.84016559 40.39596877 267.15234375 45.09375 C267.8959635 45.22166396 268.63958324 45.34957792 269.40573692 45.48136806 C280.90343283 47.45905992 292.40154834 49.43430565 303.89975739 51.40901184 C310.99761328 52.62801189 318.09540687 53.84737284 325.19308662 55.06739807 C328.22774002 55.58877256 331.26253494 56.10931667 334.29734802 56.62976074 C336.07462145 56.93510524 337.8518893 57.24048217 339.62915039 57.54589844 C340.80982181 57.74799109 340.80982181 57.74799109 342.01434517 57.95416641 C345.68774477 58.58624225 349.3469088 59.26029642 353 60 C353.11452946 108.13737414 353.20259157 156.27473382 353.25532665 204.41221744 C353.26157993 210.09968164 353.26805156 215.78714557 353.2746582 221.47460938 C353.27596976 222.60684602 353.27728131 223.73908267 353.2786326 224.90562952 C353.30036894 243.22099824 353.33978071 261.53628823 353.38576398 279.8516103 C353.43257791 298.655089 353.46030584 317.45852654 353.47044247 336.26206112 C353.47729138 347.85800581 353.49889637 359.45372791 353.53958233 371.04960406 C353.56608165 379.00926013 353.57398474 386.96880168 353.56750689 394.92849863 C353.56431518 399.51583692 353.56908953 404.10278716 353.59602737 408.69005585 C353.62056844 412.90019293 353.62145438 417.10968532 353.60449447 421.31985366 C353.60240204 422.83292744 353.60856725 424.3460434 353.62441591 425.85903561 C353.83167119 446.8888371 346.01884373 464.41261431 332 480 C331.07960938 481.04414062 331.07960938 481.04414062 330.140625 482.109375 C316.93885501 496.21383012 298.60900371 505.44361364 280 510 C279.28706787 510.17515137 278.57413574 510.35030273 277.83959961 510.53076172 C254.69559542 515.73682747 229.64955974 512.01101169 209.375 499.75 C193.7443413 489.31456743 182.68427357 474.99432428 178.5078125 456.48828125 C175.53166225 436.0444184 180.32256679 416.71391931 192.23828125 399.828125 C194.40375374 397.12034939 196.64682536 394.54544113 199 392 C199.61230469 391.30777344 200.22460938 390.61554688 200.85546875 389.90234375 C215.86641931 373.80317929 238.98178032 362.56351035 261 361 C264.77224088 360.87106428 268.53837232 360.85993362 272.3125 360.875 C273.30056641 360.87113281 274.28863281 360.86726563 275.30664062 360.86328125 C276.25345703 360.86457031 277.20027344 360.86585938 278.17578125 360.8671875 C279.03083252 360.86831543 279.88588379 360.86944336 280.7668457 360.87060547 C283 361 283 361 286 362 C285.67 295.34 285.34 228.68 285 160 C234.75823676 150.38840833 234.75823676 150.38840833 184.515625 140.78125 C183.77330533 140.63935808 183.03098566 140.49746616 182.26617146 140.35127449 C162.34158746 136.54291289 142.41537731 132.74340731 122.484375 128.96875 C121.05205882 128.69739825 121.05205882 128.69739825 119.59080696 128.42056465 C110.99951845 126.79300906 102.40794413 125.16700415 93.81511116 123.54762077 C90.82581013 122.98391759 87.83680218 122.41867217 84.84786224 121.85305786 C82.8694234 121.4792877 80.89056079 121.10776269 78.91168213 120.73632812 C77.76415466 120.51904053 76.6166272 120.30175293 75.43432617 120.07788086 C74.44776535 119.89204941 73.46120453 119.70621796 72.44474792 119.51475525 C70 119 70 119 67 118 C67.00227832 118.85013275 67.00227832 118.85013275 67.00460267 119.71743989 C67.09419092 153.33708087 67.16278455 186.95669462 67.20426132 220.57642902 C67.20926391 224.61670809 67.21444122 228.65698692 67.21972656 232.69726562 C67.2207758 233.50158389 67.22182505 234.30590215 67.22290608 235.1345937 C67.2402928 248.14364235 67.2718209 261.15262001 67.30861118 274.16162661 C67.34606891 287.5184267 67.36824605 300.87518971 67.37635398 314.23204017 C67.38183176 322.46837141 67.39910827 330.70450198 67.43166587 338.94077143 C67.45287348 344.59514542 67.45918598 350.24941626 67.45400551 355.9038271 C67.45145336 359.16209843 67.45747139 362.41994829 67.4768219 365.67817307 C67.49682742 369.2212913 67.49189985 372.76356236 67.48101807 376.30670166 C67.49266943 377.3223036 67.5043208 378.33790555 67.51632524 379.3842833 C67.37993293 395.90045794 58.80128519 410.95608908 48 423 C47.19949219 423.89460938 46.39898437 424.78921875 45.57421875 425.7109375 C26.0678215 446.34437104 -1.56799503 457.40973382 -29.75 458.3125 C-43.0144932 458.02608719 -55.92889716 455.5394787 -68 450 C-68.87914062 449.61972656 -69.75828125 449.23945313 -70.6640625 448.84765625 C-77.23235878 445.82786678 -82.58095158 441.75058027 -88 437 C-88.70125 436.40574219 -89.4025 435.81148438 -90.125 435.19921875 C-101.2210589 425.07839941 -108.3195988 409.03142268 -109.23828125 394.13671875 C-109.8117348 371.56303842 -102.42985486 352.72284077 -87.03125 336.0859375 C-69.61984143 318.04480159 -44.17498093 306.37956387 -18.96484375 305.8671875 C-17.62239583 305.86458333 -16.27992771 305.86718762 -14.9375 305.875 C-14.26912109 305.87113281 -13.60074219 305.86726563 -12.91210938 305.86328125 C-8.44156207 305.87197036 -4.49082324 306.35845382 0 307 C0 205.69 0 104.38 0 0 Z " fill="#CE87FF" transform="translate(134,0)"/>
</svg>
